<?xml version="1.0" encoding="iso-8859-1"?>
<!-- Generator: Adobe Illustrator 19.0.0, SVG Export Plug-In . SVG Version: 6.00 Build 0)  -->
<svg version="1.1" id="Layer_1" xmlns="http://www.w3.org/2000/svg" xmlns:xlink="http://www.w3.org/1999/xlink" x="0px" y="0px"
	 viewBox="0 0 512 512" style="enable-background:new 0 0 512 512;" xml:space="preserve">
<path style="fill:#1E0478;" d="M455.908,32.827v385.478c0,18.098-14.729,32.827-32.827,32.827h-28.04v37.438
	c0,12.921-10.521,23.43-23.43,23.43H79.521c-12.921,0-23.43-10.509-23.43-23.43V84.297c0-12.921,10.509-23.43,23.43-23.43h37.438
	v-28.04C116.959,14.729,131.688,0,149.786,0h273.294C441.179,0,455.908,14.729,455.908,32.827z M432.266,418.305V32.827
	c0-5.059-4.126-9.185-9.185-9.185H149.786c-5.059,0-9.185,4.126-9.185,9.185v28.04h139.195c3.251,0,6.206,1.312,8.346,3.452
	c0,0,0,0,0.012,0.012l103.424,103.424c2.187,2.187,3.369,5.095,3.44,8.086c0,0.083,0.024,0.177,0.024,0.272V427.49h28.04
	C428.14,427.49,432.266,423.365,432.266,418.305z M371.399,488.358V187.934h-76.672c-14.753,0-26.751-12.01-26.751-26.763V84.51
	H79.734v403.848H371.399z M354.672,164.291l-63.054-63.066v59.945c0,1.726,1.395,3.121,3.109,3.121H354.672z"/>
<path style="fill:#94E7EF;" d="M432.266,32.827v385.478c0,5.059-4.126,9.185-9.185,9.185h-28.04V176.112
	c0-0.095-0.024-0.189-0.024-0.272c-0.071-2.991-1.253-5.899-3.44-8.086L288.154,64.331c-0.012-0.012-0.012-0.012-0.012-0.012
	c-2.14-2.14-5.095-3.452-8.346-3.452H140.601v-28.04c0-5.059,4.126-9.185,9.185-9.185h273.294
	C428.14,23.642,432.266,27.768,432.266,32.827z"/>
<g>
	<path style="fill:#FFFFFF;" d="M371.399,187.934v300.424H79.734V84.51h188.241v76.661c0,14.753,11.999,26.763,26.751,26.763
		H371.399z"/>
	<path style="fill:#FFFFFF;" d="M291.617,101.225l63.054,63.066h-59.945c-1.714,0-3.109-1.395-3.109-3.121V101.225z"/>
</g>
<g>
</g>
<g>
</g>
<g>
</g>
<g>
</g>
<g>
</g>
<g>
</g>
<g>
</g>
<g>
</g>
<g>
</g>
<g>
</g>
<g>
</g>
<g>
</g>
<g>
</g>
<g>
</g>
<g>
</g>
</svg>
