<?xml version="1.0" encoding="iso-8859-1"?>
<!-- Generator: Adobe Illustrator 19.0.0, SVG Export Plug-In . SVG Version: 6.00 Build 0)  -->
<svg version="1.1" id="Layer_1" xmlns="http://www.w3.org/2000/svg" xmlns:xlink="http://www.w3.org/1999/xlink" x="0px" y="0px"
	 viewBox="0 0 512 512" style="enable-background:new 0 0 512 512;" xml:space="preserve">
<circle style="fill:#31BAFD;" cx="256" cy="256" r="256"/>
<path style="fill:#2B9ED8;" d="M508.897,295.917L402.006,189.026l-208.067,4.913h-31.03l-6.292,187.88L285.137,510.34
	C399.62,497.366,491.205,408.902,508.897,295.917z"/>
<path style="fill:#324A5E;" d="M402.006,189.026l-55.082-43.467c-5.186-4.093-12.254-4.861-18.199-1.979
	c-5.944,2.881-9.719,8.907-9.719,15.513v26.226H168.943c-9.521,0-17.239,7.718-17.239,17.239v167.219
	c0,9.521,7.718,17.239,17.239,17.239c9.521,0,17.239-7.718,17.239-17.239v-149.98h132.824v26.228c0,6.606,3.775,12.631,9.719,15.513
	c2.389,1.158,4.96,1.726,7.516,1.726c3.806,0,7.58-1.258,10.681-3.706l55.082-43.467c4.143-3.269,6.559-8.256,6.559-13.533
	S406.149,192.295,402.006,189.026z"/>
<path style="fill:#2B3B4E;" d="M402.006,189.026l-55.082-43.467c-5.186-4.093-12.254-4.861-18.199-1.979
	c-5.944,2.881-9.719,8.907-9.719,15.513v26.226h-67.027v34.478h67.027v26.228c0,6.606,3.775,12.631,9.719,15.513
	c2.389,1.158,4.96,1.726,7.516,1.726c3.806,0,7.58-1.258,10.681-3.706l55.082-43.467c4.143-3.269,6.559-8.256,6.559-13.533
	S406.149,192.295,402.006,189.026z"/>
<g>
</g>
<g>
</g>
<g>
</g>
<g>
</g>
<g>
</g>
<g>
</g>
<g>
</g>
<g>
</g>
<g>
</g>
<g>
</g>
<g>
</g>
<g>
</g>
<g>
</g>
<g>
</g>
<g>
</g>
</svg>
