<?xml version="1.0" encoding="iso-8859-1"?>
<!-- Generator: Adobe Illustrator 19.0.0, SVG Export Plug-In . SVG Version: 6.00 Build 0)  -->
<svg version="1.1" id="Layer_1" xmlns="http://www.w3.org/2000/svg" xmlns:xlink="http://www.w3.org/1999/xlink" x="0px" y="0px"
	 viewBox="0 0 512 512" style="enable-background:new 0 0 512 512;" xml:space="preserve">
<path style="fill:#47CEAC;" d="M0,256.006C0,397.402,114.606,512.004,255.996,512C397.394,512.004,512,397.402,512,256.006
	C512.009,114.61,397.394,0,255.996,0C114.606,0,0,114.614,0,256.006z"/>
<path style="fill:#36BB9A;" d="M506.502,308.889c-0.234-0.25-0.454-0.511-0.73-0.73c-0.34-0.429-0.708-0.797-1.137-1.137
	c-0.34-0.429-217.96-218.048-218.388-218.388c-1.298-1.637-3.217-2.755-5.471-2.755c-14.604,0-27.228,7.341-34.853,18.715
	c-0.25-0.243-6.046-6.044-6.438-6.409c-7.603-7.632-17.964-12.306-29.594-12.306c-3.918,0-7.089,3.173-7.089,7.089
	c0,2.252,1.117,4.172,2.754,5.47c0.34,0.429,0.707,0.797,1.137,1.137c0.34,0.429,31.23,31.365,31.551,31.648v117.691h-28.353
	c-3.918,0-7.089,3.173-7.089,7.089c0,2.253,1.117,4.173,2.754,5.471c0.34,0.429,32.367,32.502,32.688,32.784v88.551
	c0,16.613-12.19,29.139-28.353,29.139c-3.918,0-7.089,3.173-7.089,7.089c0,2.253,1.117,4.173,2.754,5.471
	c0.34,0.429,0.708,0.798,1.137,1.137c0.34,0.429,82.604,82.693,83.034,83.034c0.277,0.349,0.594,0.639,0.926,0.926
	C398.161,495.049,484.461,413.829,506.502,308.889z"/>
<path style="fill:#F4F6F9;" d="M252.421,263.088h28.354c3.918,0,7.088-3.174,7.088-7.088c0-3.915-3.17-7.088-7.088-7.088h-28.354
	V130.225c0-16.918,12.453-30.171,28.354-30.171c3.918,0,7.088-3.174,7.088-7.088c0-3.914-3.17-7.088-7.088-7.088
	c-14.962,0-27.885,7.673-35.442,19.527c-7.557-11.855-20.481-19.527-35.442-19.527c-3.918,0-7.088,3.174-7.088,7.088
	c0,3.914,3.17,7.088,7.088,7.088c15.901,0,28.354,13.252,28.354,30.171v118.687h-28.354c-3.918,0-7.088,3.174-7.088,7.088
	c0,3.915,3.17,7.088,7.088,7.088h28.354v119.718c0,16.613-12.19,29.139-28.354,29.139c-3.918,0-7.088,3.174-7.088,7.088
	s3.17,7.088,7.088,7.088c14.962,0,27.885-7.493,35.442-19.073c7.557,11.58,20.481,19.073,35.442,19.073
	c3.918,0,7.088-3.173,7.088-7.088c0-3.915-3.17-7.088-7.088-7.088c-16.163,0-28.354-12.526-28.354-29.139L252.421,263.088
	L252.421,263.088z"/>
<g>
</g>
<g>
</g>
<g>
</g>
<g>
</g>
<g>
</g>
<g>
</g>
<g>
</g>
<g>
</g>
<g>
</g>
<g>
</g>
<g>
</g>
<g>
</g>
<g>
</g>
<g>
</g>
<g>
</g>
</svg>
