<svg xmlns="http://www.w3.org/2000/svg" width="96px" height="96px" viewBox="0 0 48 48" >
 <g>
  <title>Layer 1</title>
  <path fill="#f49797" d="m42.256,6l-26.512,0c-0.963,0 -1.744,0.781 -1.744,1.744l0,7.259l30,0l0,-7.259c0,-0.963 -0.781,-1.744 -1.744,-1.744z" id="svg_1"/>
  <path fill="#ce1212" d="m14,33.054l0,7.202c0,0.963 0.781,1.744 1.743,1.744l26.513,0c0.963,0 1.744,-0.781 1.744,-1.744l0,-7.202l-30,0z" id="svg_2"/>
  <path fill="#ed7474" d="m14,15.003l30,0l0,9.002l-30,0l0,-9.002z" id="svg_3"/>
  <path fill="#db3f3f" d="m14,24.005l30,0l0,9.05l-30,0l0,-9.05z" id="svg_4"/>
  <path fill="#a30b0b" d="m22.319,34l-16.638,0c-0.928,0 -1.681,-0.753 -1.681,-1.681l0,-16.638c0,-0.928 0.753,-1.681 1.681,-1.681l16.638,0c0.928,0 1.681,0.753 1.681,1.681l0,16.638c0,0.928 -0.753,1.681 -1.681,1.681z" id="svg_5"/>
  <text fill="#ffffff" stroke-width="0" stroke-opacity="null" fill-opacity="null" x="5.47463" y="32.52018" id="svg_8" font-size="13" font-family="Helvetica, Arial, sans-serif" text-anchor="start" xml:space="preserve" transform="matrix(0.6250760502511382,0,0,0.6346320276981636,2.1184024274175925,6.4283112295747475) " stroke="null">PDF</text>
 </g>
</svg>